<mxfile host="app.diagrams.net" modified="2021-12-17T18:31:16.978Z" agent="5.0 (Windows NT 10.0; Win64; x64) AppleWebKit/537.36 (KHTML, like Gecko) Chrome/95.0.4638.69 Safari/537.36 OPR/81.0.4196.61" etag="KJQw3J4Pg7DGhilv38Gx" version="15.9.6" type="github">
  <diagram id="TbyJkJQcpYIO0hfAJC0a" name="Page-1">
    <mxGraphModel dx="1381" dy="774" grid="1" gridSize="10" guides="1" tooltips="1" connect="1" arrows="1" fold="1" page="1" pageScale="1" pageWidth="827" pageHeight="1169" math="0" shadow="0">
      <root>
        <mxCell id="0" />
        <mxCell id="1" parent="0" />
        <mxCell id="0NgiwYsnWzyRqQ_1yEEM-3" value="" style="edgeStyle=orthogonalEdgeStyle;rounded=0;orthogonalLoop=1;jettySize=auto;html=1;startArrow=none;" parent="1" source="yu11D86fvyafeuJc5jv2-6" target="0NgiwYsnWzyRqQ_1yEEM-2" edge="1">
          <mxGeometry relative="1" as="geometry" />
        </mxCell>
        <mxCell id="yu11D86fvyafeuJc5jv2-10" value="" style="edgeStyle=orthogonalEdgeStyle;rounded=0;orthogonalLoop=1;jettySize=auto;html=1;" edge="1" parent="1" source="0NgiwYsnWzyRqQ_1yEEM-1" target="yu11D86fvyafeuJc5jv2-1">
          <mxGeometry relative="1" as="geometry" />
        </mxCell>
        <mxCell id="0NgiwYsnWzyRqQ_1yEEM-1" value="Nuevo Proyecto utilizando Flexin" style="ellipse;whiteSpace=wrap;html=1;" parent="1" vertex="1">
          <mxGeometry x="190" y="60" width="100" height="80" as="geometry" />
        </mxCell>
        <mxCell id="0NgiwYsnWzyRqQ_1yEEM-5" value="" style="edgeStyle=orthogonalEdgeStyle;rounded=0;orthogonalLoop=1;jettySize=auto;html=1;" parent="1" source="0NgiwYsnWzyRqQ_1yEEM-2" target="0NgiwYsnWzyRqQ_1yEEM-4" edge="1">
          <mxGeometry relative="1" as="geometry" />
        </mxCell>
        <mxCell id="0NgiwYsnWzyRqQ_1yEEM-7" value="" style="edgeStyle=orthogonalEdgeStyle;rounded=0;orthogonalLoop=1;jettySize=auto;html=1;" parent="1" source="0NgiwYsnWzyRqQ_1yEEM-2" target="0NgiwYsnWzyRqQ_1yEEM-6" edge="1">
          <mxGeometry relative="1" as="geometry" />
        </mxCell>
        <mxCell id="0NgiwYsnWzyRqQ_1yEEM-2" value="Cantidad de integrantes del equipo" style="ellipse;whiteSpace=wrap;html=1;" parent="1" vertex="1">
          <mxGeometry x="190" y="400" width="100" height="80" as="geometry" />
        </mxCell>
        <mxCell id="wrklsWvTA2XIepsXvbi8-2" value="" style="edgeStyle=orthogonalEdgeStyle;rounded=0;orthogonalLoop=1;jettySize=auto;html=1;" parent="1" source="0NgiwYsnWzyRqQ_1yEEM-4" target="wrklsWvTA2XIepsXvbi8-1" edge="1">
          <mxGeometry relative="1" as="geometry" />
        </mxCell>
        <mxCell id="0NgiwYsnWzyRqQ_1yEEM-4" value="Más de 4 personas" style="whiteSpace=wrap;html=1;" parent="1" vertex="1">
          <mxGeometry x="60" y="520" width="120" height="60" as="geometry" />
        </mxCell>
        <mxCell id="wrklsWvTA2XIepsXvbi8-4" value="" style="edgeStyle=orthogonalEdgeStyle;rounded=0;orthogonalLoop=1;jettySize=auto;html=1;" parent="1" source="0NgiwYsnWzyRqQ_1yEEM-6" target="wrklsWvTA2XIepsXvbi8-3" edge="1">
          <mxGeometry relative="1" as="geometry" />
        </mxCell>
        <mxCell id="0NgiwYsnWzyRqQ_1yEEM-6" value="Menos de 4 personas" style="whiteSpace=wrap;html=1;" parent="1" vertex="1">
          <mxGeometry x="300" y="520" width="120" height="60" as="geometry" />
        </mxCell>
        <mxCell id="wrklsWvTA2XIepsXvbi8-6" value="" style="edgeStyle=orthogonalEdgeStyle;rounded=0;orthogonalLoop=1;jettySize=auto;html=1;" parent="1" source="wrklsWvTA2XIepsXvbi8-1" target="wrklsWvTA2XIepsXvbi8-5" edge="1">
          <mxGeometry relative="1" as="geometry" />
        </mxCell>
        <mxCell id="wrklsWvTA2XIepsXvbi8-1" value="Flexin Scrum" style="ellipse;whiteSpace=wrap;html=1;" parent="1" vertex="1">
          <mxGeometry x="60" y="660" width="120" height="60" as="geometry" />
        </mxCell>
        <mxCell id="wrklsWvTA2XIepsXvbi8-8" value="" style="edgeStyle=orthogonalEdgeStyle;rounded=0;orthogonalLoop=1;jettySize=auto;html=1;" parent="1" source="wrklsWvTA2XIepsXvbi8-3" target="wrklsWvTA2XIepsXvbi8-7" edge="1">
          <mxGeometry relative="1" as="geometry" />
        </mxCell>
        <mxCell id="wrklsWvTA2XIepsXvbi8-3" value="Flexin Kanban" style="ellipse;whiteSpace=wrap;html=1;" parent="1" vertex="1">
          <mxGeometry x="300" y="660" width="120" height="60" as="geometry" />
        </mxCell>
        <mxCell id="wrklsWvTA2XIepsXvbi8-5" value="Breve descripción de Flexin Scrum" style="whiteSpace=wrap;html=1;" parent="1" vertex="1">
          <mxGeometry x="60" y="800" width="120" height="60" as="geometry" />
        </mxCell>
        <mxCell id="wrklsWvTA2XIepsXvbi8-7" value="&lt;span&gt;Breve descripción de Flexin Kanban&lt;/span&gt;" style="whiteSpace=wrap;html=1;" parent="1" vertex="1">
          <mxGeometry x="300" y="800" width="120" height="60" as="geometry" />
        </mxCell>
        <mxCell id="yu11D86fvyafeuJc5jv2-7" value="" style="edgeStyle=orthogonalEdgeStyle;rounded=0;orthogonalLoop=1;jettySize=auto;html=1;" edge="1" parent="1" source="yu11D86fvyafeuJc5jv2-1" target="yu11D86fvyafeuJc5jv2-6">
          <mxGeometry relative="1" as="geometry" />
        </mxCell>
        <mxCell id="yu11D86fvyafeuJc5jv2-1" value="Reunión con el Cliente" style="ellipse;whiteSpace=wrap;html=1;" vertex="1" parent="1">
          <mxGeometry x="190" y="180" width="100" height="80" as="geometry" />
        </mxCell>
        <mxCell id="yu11D86fvyafeuJc5jv2-6" value="Líder Técnico" style="ellipse;whiteSpace=wrap;html=1;" vertex="1" parent="1">
          <mxGeometry x="190" y="290" width="100" height="80" as="geometry" />
        </mxCell>
      </root>
    </mxGraphModel>
  </diagram>
</mxfile>
